<?xml version="1.0" encoding="utf-8"?>
<!-- Generator: Adobe Illustrator 18.0.0, SVG Export Plug-In . SVG Version: 6.00 Build 0)  -->
<!DOCTYPE svg PUBLIC "-//W3C//DTD SVG 1.1//EN" "http://www.w3.org/Graphics/SVG/1.1/DTD/svg11.dtd">
<svg version="1.1" id="Layer_1" xmlns="http://www.w3.org/2000/svg" xmlns:xlink="http://www.w3.org/1999/xlink" x="0px" y="0px"
	 viewBox="0 0 438.2 470.1" enable-background="new 0 0 438.2 470.1" xml:space="preserve">
<path fill-rule="evenodd" clip-rule="evenodd" d="M219.1,0c73.1,39.2,146.1,78.4,219.1,117.6c0,78.5,0,156.8,0,235.4
	c-0.7,0.4-1.4,0.8-2.1,1.3c-71.5,38.4-143,76.7-214.4,115.1c-1.8,1-3.2,1-5,0C145.1,430.9,73.6,392.6,2.2,354.2
	c-0.7-0.4-1.4-0.8-2.2-1.2c0-78.4,0-156.8,0-235.4C72.9,78.5,145.9,39.3,219.1,0z M11.6,345.8c1.2,0.6,2.2,1.2,3.3,1.8
	c52.3,28,104.5,56.1,156.8,84.1c15.2,8.2,30.4,16.3,45.6,24.5c1.4,0.7,2.5,0.9,3.7,0c0.3-0.2,0.7-0.4,1-0.6
	c67.3-36.1,134.7-72.3,202-108.4c0.8-0.5,1.7-0.9,2.6-1.5c0-1.1,0-2.1,0-3.1c0-72.1,0-144.2,0-216.2c0-0.6-0.1-1.1,0-1.7
	c0.1-1.2-0.4-2-1.5-2.4c-0.4-0.2-0.8-0.4-1.3-0.7C356.3,85.4,288.8,49.2,221.3,12.9c-1.8-1-3-0.7-4.6,0.1
	C149.5,49.1,82.2,85.2,14.9,121.3c-0.8,0.4-1.5,0.8-2.3,1.2c-0.7,0.4-1.1,0.9-1,1.7c0,0.6,0,1.1,0,1.7c0,72.3,0,144.6,0,217
	C11.6,343.9,11.6,344.8,11.6,345.8z"/>
<path fill-rule="evenodd" clip-rule="evenodd" fill="#FFFFFF" d="M11.6,345.8c0-1,0-1.9,0-2.9c0-72.3,0-144.6,0-217
	c0-0.6,0-1.1,0-1.7c-0.1-0.8,0.3-1.3,1-1.7c0.8-0.4,1.6-0.8,2.3-1.2C82.2,85.2,149.5,49.1,216.7,13c1.6-0.8,2.8-1.1,4.6-0.1
	c67.5,36.3,135.1,72.6,202.6,108.8c0.4,0.2,0.8,0.5,1.3,0.7c1.1,0.4,1.6,1.2,1.5,2.4c-0.1,0.6,0,1.1,0,1.7c0,72.1,0,144.2,0,216.2
	c0,1,0,2.1,0,3.1c-1,0.5-1.8,1-2.6,1.5c-67.3,36.1-134.7,72.3-202,108.4c-0.4,0.2-0.7,0.3-1,0.6c-1.2,1-2.4,0.8-3.7,0
	c-15.2-8.2-30.4-16.4-45.6-24.5c-52.3-28-104.5-56.1-156.8-84.1C13.8,347,12.7,346.4,11.6,345.8z M219.1,450.7
	c5.4-2.9,10.7-5.8,16.1-8.6c57.3-30.7,114.5-61.5,171.8-92.2c4.1-2.2,8.1-4.4,12.3-6.6c1.3-0.6,1.8-1.4,1.6-2.8
	c-0.1-0.6,0-1.3,0-1.9c0-47.3,0-94.6,0-141.8c0-22.6,0-45.3,0-67.9c0-1.7-0.5-2.6-2-3.3c-6.5-3.4-12.8-6.8-19.2-10.3
	c-57.4-30.8-114.8-61.6-172.2-92.4c-2.8-1.5-5.6-3-8.4-4.5c-0.7,0.4-1.3,0.6-1.9,0.9c-15.6,8.4-31.3,16.8-46.9,25.2
	c-50.4,27-100.7,54.1-151.1,81c-1.5,0.8-2,1.7-2,3.3c0.1,9.5,0,19,0,28.6c0,60.8,0,121.6,0,182.4c0,1.9,0.6,3,2.3,3.9
	c16.1,8.6,32.1,17.2,48.2,25.8c44.4,23.8,88.7,47.6,133.1,71.4C206.9,444.2,213,447.4,219.1,450.7z"/>
<path fill-rule="evenodd" clip-rule="evenodd" d="M219.1,450.7c-6.1-3.3-12.2-6.5-18.2-9.8c-44.4-23.8-88.7-47.6-133.1-71.4
	c-16.1-8.6-32.1-17.3-48.2-25.8c-1.7-0.9-2.3-1.9-2.3-3.9c0.1-60.8,0-121.6,0-182.4c0-9.5,0-19,0-28.6c0-1.7,0.5-2.5,2-3.3
	c50.4-27,100.7-54,151.1-81c15.6-8.4,31.3-16.8,46.9-25.2c0.6-0.3,1.1-0.6,1.9-0.9c2.7,1.5,5.5,3,8.4,4.5
	c57.4,30.8,114.8,61.6,172.2,92.4c6.4,3.4,12.8,6.9,19.2,10.3c1.5,0.8,2,1.7,2,3.3c-0.1,22.6,0,45.3,0,67.9c0,47.3,0,94.6,0,141.8
	c0,0.6-0.1,1.3,0,1.9c0.2,1.4-0.4,2.2-1.6,2.8c-4.1,2.1-8.2,4.4-12.3,6.6c-57.3,30.7-114.5,61.5-171.8,92.2
	C229.8,444.9,224.5,447.8,219.1,450.7z M158.1,144.3c-0.1,0.3-0.2,0.6-0.2,0.9c0,8.7,0,17.4,0,26.1c0,0.4,0.1,0.7,0.2,1.4
	c11.3-6.2,22.3-12.2,33.2-18.1c0-9.4,0-18.6,0-28c-0.8,0.4-1.5,0.6-2.1,1c-7.7,4.2-15.4,8.4-23.1,12.6
	C163.4,141.6,160.7,142.9,158.1,144.3c-0.1-0.6-0.2-1.2-0.2-1.8c0-15.6,0-31.2,0-46.8c0-0.6,0.1-1.2,0.1-1.8
	c0.9-0.5,1.7-0.9,2.4-1.3c13.8-7.5,27.6-15.1,41.5-22.6c1.4-0.8,1.9-1.6,1.9-3.2c-0.1-7.8,0-15.7,0-23.5c0-0.7-0.1-1.3-0.2-2.3
	c-23.7,13-47.1,25.7-70.4,38.5c0,26.2,0,52.2,0,78.5c0.9-0.5,1.6-0.8,2.3-1.2c6.8-3.6,13.5-7.3,20.2-10.9
	C156.5,145.3,157.3,144.7,158.1,144.3z M56,121.7c-1.1,0.6-1.8,0.9-2.5,1.2c-6.8,3.7-13.6,7.5-20.4,11.1c-1.7,0.9-2.2,1.9-2.2,3.7
	c0,60.2,0,120.3,0,180.5c0,0.8,0.1,1.5,0.1,2.6c0.9-0.5,1.6-0.8,2.3-1.1c6.8-3.7,13.6-7.5,20.4-11.1c1.8-0.9,2.2-2,2.2-3.9
	c-0.1-24.4,0-48.8,0-73.2c0-1,0-1.9,0-2.7c4.9-3.2,27.7-15.4,29.4-15.8c0,0.1,0.1,0.1,0.1,0.2c0,0.1,0,0.2,0.1,0.2
	c0,0.1,0,0.2,0,0.2c0,0.2,0,0.3,0,0.5c0,25,0,49.9,0,74.9c0,0.2,0,0.3,0,0.5c0,0.2,0,0.3,0,0.5c0,0.1,0,0.2,0,0.2
	c0,0.1,0,0.2,0.1,0.2c0,0.1,0.1,0.1,0.1,0.2c0.1,0.1,0.1,0.1,0.3,0.2c4.1-2.3,8.4-4.5,12.6-6.8c3.5-1.9,7-3.9,10.5-5.7
	c1.1-0.6,1.6-1.2,1.4-2.4c-0.1-0.6,0-1.3,0-1.9c0-45.2,0-90.4,0-135.6c0-14.6,0-29.1,0-43.7c0-0.8-0.1-1.7-0.1-2.8
	c-1.1,0.5-1.8,0.9-2.5,1.2c-6,3.3-12.1,6.6-18.1,9.9c-1.4,0.8-3.3,1.3-4,2.5c-0.7,1.3-0.4,3.2-0.4,4.9c0,23.8,0,47.7,0,71.5
	c0,1.7-0.5,2.7-2.1,3.5c-8.5,4.5-16.9,9.2-25.3,13.8c-0.7,0.4-1.3,0.7-2.3,1.2C56,174,56,148.1,56,121.7z M407,320.9
	c0-1.3,0-2.3,0-3.2c0-23.8,0-47.7,0-71.5c0-36.2,0-72.3,0-108.5c0-1.8-0.5-2.8-2.2-3.7c-6.9-3.6-13.6-7.4-20.4-11.1
	c-0.7-0.4-1.4-0.7-2.4-1.2c0,4,0,7.8,0,11.5c0,3.7,0,7.4,0,11c0,3.8,0,7.5,0,11.3c0,3.7,0,7.4,0,11c0,3.8,0,7.5,0,11.3
	c0,3.7,0,7.4,0,11c0,3.7,0,7.4,0,11.5c-10.2-5.6-19.9-10.9-29.7-16.2c0-26.3,0-52.5,0-78.8c-8.3-4.5-16.4-9-25-13.6c0,1.2,0,2,0,2.8
	c0,33.9,0,67.8,0,101.7c0,1.9,0.6,2.8,2.2,3.7c16.7,9.1,33.4,18.2,50.1,27.4c0.8,0.5,1.6,0.9,2.3,1.3c0,16.8,0,33.4,0,50.4
	c-17.9-9.7-35.5-19.3-53.5-29.1c0,1.2,0,1.9,0,2.6c0,7.8,0,15.5,0,23.3c0,1.7,0.5,2.6,2,3.4c9.6,5.2,19.3,10.4,28.9,15.7
	c15,8.2,30,16.4,45,24.6C405,319.9,405.8,320.3,407,320.9z M219.6,232.3c-64.2,34.5-128.3,68.9-192.7,103.5c1.1,0.6,1.8,1.1,2.5,1.4
	c62.7,33.7,125.3,67.3,188,101c1.6,0.9,2.9,1,4.6,0c62.7-33.7,125.4-67.4,188.2-101.1c0.7-0.4,1.3-0.8,2.3-1.4
	C347.9,301.2,283.8,266.8,219.6,232.3z M223.2,38c0,51.5,0,102.5,0,153.7c8.7,4.1,17.3,8.2,26.2,12.4c0-51.1,0-101.8,0-152.7
	C240.8,47,232.2,42.6,223.2,38z M279.4,66.8c0,51.3,0,102.3,0,153.2c8.7,4.1,17.4,8.2,26.2,12.4c0-51,0-101.5,0-152.2
	C297,75.8,288.4,71.3,279.4,66.8z M157.8,173.1c-0.9,0.4-1.6,0.7-2.2,1c-6.9,3.7-13.8,7.4-20.8,10.9c-1.5,0.8-2,1.7-2,3.3
	c0,24.7,0,49.4,0,74.1c0,0.8,0.1,1.5,0.1,2.5c0.8-0.3,1.4-0.5,1.9-0.8c22.4-12.2,44.7-24.4,67.1-36.6c1.2-0.7,1.7-1.4,1.7-2.8
	c-0.1-8.1,0-16.2,0-24.2c0-0.5-0.1-1-0.2-1.8c-15.3,8.2-30.2,16.6-45.7,24.9C157.8,206.6,157.8,190,157.8,173.1z M278.8,219.7
	c-9.6-5.1-19.3-10.2-29.1-15.4c-0.1,0.6-0.2,0.9-0.2,1.2c0,9,0,17.9,0,26.9c0,1.3,0.6,1.8,1.6,2.3c8.7,4.6,17.4,9.2,26.1,13.8
	c0.5,0.2,1,0.4,1.7,0.7C278.8,239.3,278.8,229.7,278.8,219.7z"/>
<path fill-rule="evenodd" clip-rule="evenodd" fill="#FFFFFF" d="M56,121.7c0,26.4,0,52.3,0,78.6c1-0.5,1.6-0.8,2.3-1.2
	c8.4-4.6,16.8-9.2,25.3-13.8c1.6-0.8,2.1-1.8,2.1-3.5c-0.1-23.8,0-47.7,0-71.5c0-1.7-0.3-3.6,0.4-4.9c0.7-1.2,2.6-1.7,4-2.5
	c6-3.3,12.1-6.6,18.1-9.9c0.7-0.4,1.4-0.7,2.5-1.2c0,1.2,0.1,2,0.1,2.8c0,14.6,0,29.1,0,43.7c0,45.2,0,90.4,0,135.6
	c0,0.6-0.1,1.3,0,1.9c0.1,1.2-0.4,1.9-1.4,2.4c-3.5,1.9-7,3.8-10.5,5.7c-4.2,2.3-8.4,4.6-12.6,6.8c-0.2-0.1-0.3-0.2-0.3-0.2
	c-0.1-0.1-0.1-0.1-0.1-0.2c0-0.1,0-0.2-0.1-0.2c0-0.1,0-0.2,0-0.2c0-0.2,0-0.3,0-0.5c0-0.2,0-0.3,0-0.5c0-25,0-49.9,0-74.9
	c0-0.2,0-0.3,0-0.5c0-0.1,0-0.2,0-0.2c0-0.1,0-0.2-0.1-0.2c0-0.1-0.1-0.1-0.1-0.2c-1.7,0.4-24.5,12.6-29.4,15.8c0,0.8,0,1.8,0,2.7
	c0,24.4,0,48.8,0,73.2c0,1.9-0.5,3-2.2,3.9c-6.9,3.6-13.6,7.4-20.4,11.1c-0.7,0.4-1.4,0.7-2.3,1.1c-0.1-1.1-0.1-1.9-0.1-2.6
	c0-60.2,0-120.3,0-180.5c0-1.8,0.5-2.8,2.2-3.7c6.9-3.6,13.6-7.4,20.4-11.1C54.2,122.6,54.9,122.2,56,121.7z"/>
<path fill-rule="evenodd" clip-rule="evenodd" fill="#FFFFFF" d="M407,320.9c-1.2-0.6-2-1-2.9-1.4c-15-8.2-30-16.4-45-24.6
	c-9.6-5.3-19.2-10.5-28.9-15.7c-1.5-0.8-2-1.7-2-3.4c0.1-7.8,0-15.5,0-23.3c0-0.7,0-1.4,0-2.6c18,9.8,35.6,19.4,53.5,29.1
	c0-17,0-33.6,0-50.4c-0.7-0.4-1.5-0.9-2.3-1.3c-16.7-9.1-33.4-18.3-50.1-27.4c-1.6-0.9-2.2-1.8-2.2-3.7c0.1-33.9,0-67.8,0-101.7
	c0-0.8,0-1.6,0-2.8c8.5,4.7,16.7,9.1,25,13.6c0,26.3,0,52.5,0,78.8c9.8,5.4,19.5,10.7,29.7,16.2c0.1-4.1,0-7.8,0-11.5
	c0-3.7,0-7.4,0-11c0-3.8,0-7.5,0-11.3c0-3.7,0-7.4,0-11c0-3.8,0-7.5,0-11.3c0-3.7,0-7.4,0-11c0-3.7,0-7.4,0-11.5
	c1.1,0.5,1.8,0.8,2.4,1.2c6.8,3.7,13.6,7.5,20.4,11.1c1.7,0.9,2.2,1.9,2.2,3.7c-0.1,36.2,0,72.3,0,108.5c0,23.8,0,47.7,0,71.5
	C407,318.7,407,319.6,407,320.9z"/>
<path fill-rule="evenodd" clip-rule="evenodd" fill="#FFFFFF" d="M219.6,232.3c64.2,34.5,128.3,68.9,192.7,103.5
	c-0.9,0.6-1.6,1-2.3,1.4c-62.7,33.7-125.5,67.4-188.2,101.1c-1.7,0.9-2.9,0.8-4.6,0c-62.6-33.7-125.3-67.3-188-101
	c-0.7-0.4-1.4-0.8-2.5-1.4C91.3,301.2,155.4,266.8,219.6,232.3z M50.1,336.1c1.1,0.6,1.9,1.1,2.7,1.5c55,29.7,110,59.4,164.9,89.2
	c1.7,0.9,2.9,0.9,4.6,0c55-29.8,110-59.5,164.9-89.2c0.8-0.4,1.5-0.8,2.6-1.4c-56.8-30.7-113.3-61.2-169.9-91.8
	C163.4,274.9,106.9,305.4,50.1,336.1z"/>
<path fill-rule="evenodd" clip-rule="evenodd" fill="#FFFFFF" d="M223.2,38c8.9,4.6,17.5,9,26.2,13.4c0,50.8,0,101.5,0,152.7
	c-8.8-4.2-17.5-8.3-26.2-12.4C223.2,140.5,223.2,89.5,223.2,38z"/>
<path fill-rule="evenodd" clip-rule="evenodd" fill="#FFFFFF" d="M279.4,66.8c9,4.5,17.6,9,26.2,13.4c0,50.7,0,101.2,0,152.2
	c-8.8-4.2-17.5-8.3-26.2-12.4C279.4,169.1,279.4,118.2,279.4,66.8z"/>
<path fill-rule="evenodd" clip-rule="evenodd" fill="#FFFFFF" d="M157.8,173.1c0,16.9,0,33.5,0,50.5c15.4-8.3,30.4-16.6,45.7-24.9
	c0.1,0.8,0.2,1.3,0.2,1.8c0,8.1,0,16.2,0,24.2c0,1.4-0.5,2.1-1.7,2.8c-22.4,12.2-44.7,24.4-67.1,36.6c-0.5,0.3-1.1,0.5-1.9,0.8
	c0-1-0.1-1.8-0.1-2.5c0-24.7,0-49.4,0-74.1c0-1.6,0.4-2.6,2-3.3c7-3.6,13.9-7.3,20.8-10.9C156.3,173.8,156.9,173.6,157.8,173.1z"/>
<path fill-rule="evenodd" clip-rule="evenodd" fill="#FFFFFF" d="M158.1,144.2c-0.8,0.5-1.6,1-2.4,1.5c-6.7,3.7-13.5,7.3-20.2,10.9
	c-0.7,0.4-1.4,0.7-2.3,1.2c0-26.2,0-52.2,0-78.5c23.3-12.7,46.7-25.5,70.4-38.5c0.1,1,0.2,1.6,0.2,2.3c0,7.8,0,15.7,0,23.5
	c0,1.6-0.5,2.4-1.9,3.2c-13.8,7.5-27.6,15.1-41.5,22.6c-0.8,0.4-1.5,0.8-2.4,1.3c0,0.6-0.1,1.2-0.1,1.8c0,15.6,0,31.2,0,46.8
	C157.9,143.1,158,143.7,158.1,144.2L158.1,144.2z"/>
<path fill-rule="evenodd" clip-rule="evenodd" fill="#FFFFFF" d="M158.1,144.3c2.7-1.4,5.4-2.7,8-4.2c7.7-4.2,15.4-8.4,23.1-12.6
	c0.6-0.3,1.2-0.6,2.1-1c0,9.4,0,18.6,0,28c-10.9,5.9-21.9,12-33.2,18.1c-0.1-0.7-0.2-1.1-0.2-1.4c0-8.7,0-17.4,0-26.1
	C157.9,144.9,158,144.6,158.1,144.3C158.1,144.2,158.1,144.3,158.1,144.3z"/>
<path fill-rule="evenodd" clip-rule="evenodd" fill="#FFFFFF" d="M278.8,219.7c0,9.9,0,19.6,0,29.5c-0.7-0.3-1.2-0.5-1.7-0.7
	c-8.7-4.6-17.4-9.2-26.1-13.8c-1-0.5-1.6-1-1.6-2.3c0.1-9,0-17.9,0-26.9c0-0.3,0.1-0.6,0.2-1.2C259.5,209.5,269.2,214.6,278.8,219.7
	z"/>
<path fill-rule="evenodd" clip-rule="evenodd" d="M50.1,336.1c56.8-30.7,113.3-61.2,169.9-91.8c56.6,30.6,113.1,61.1,169.9,91.8
	c-1.1,0.6-1.8,1-2.6,1.4c-55,29.7-110,59.4-164.9,89.2c-1.7,0.9-2.9,1-4.6,0c-55-29.8-110-59.5-164.9-89.2
	C52,337.2,51.2,336.7,50.1,336.1z M253.7,347.1c0.2-1.3,0.3-2.1,0.5-2.8c1.3-5.2,2.6-10.4,3.9-15.6c1.9-7.8,4-15.5,6.9-22.9
	c0.8-2.1,1.6-4.2,2.3-6.3c0.6-1.7,0.3-2.7-1.4-3.5c-0.9-0.4-2-0.5-3-0.8c-3.5-1.2-5.9,1.1-6.8,3.6c-1.4,3.9-2.8,7.8-4.1,11.8
	c-1.1,3.5-2.1,7-3,10.6c-1,3.5-1.9,7.1-2.7,10.7c-1,4.3-1.9,8.6-3,12.8c-0.6,2.3-1.3,2.7-3.6,2.3c-3-0.5-6-1-9-1.5
	c-1.8-0.3-3.6-0.6-5.4-1.1c-1.9-0.5-2.3-1.2-2.2-3.1c0-0.6,0.1-1.1,0.2-1.7c2.6-9.6,5.2-19.3,7.8-28.9c1.4-5.2,3-10.4,4.5-15.7
	c0.6-2.1,0.1-3.2-1.8-4.1c-2.8-1.3-6.4-0.6-8.6,1.6c-0.6,0.6-1.1,1.1-1.8,1.6c-4.3,3.5-9.1,5.2-14.7,4.5c-4.4-0.6-8.7-1.3-13.1-1.5
	c-6.9-0.3-13.5,1-19.3,5.1c-4.4,3-6.9,7-7.4,12.3c-0.6,6,2.7,11.7,8.3,14.1c4.5,2,9.2,1.6,13.9,0.9c2.7-0.4,4.8-2.1,6.8-3.9
	c1.6-1.4,1.7-3,0.5-4.5c-1.2-1.6-2.5-1.8-4.4-0.8c-1.3,0.7-2.6,1.3-3.9,1.9c-2,0.8-4.1,0.7-6.1-0.1c-4-1.6-5.6-5.1-4.1-9.2
	c1.2-3.3,3.9-5,6.9-6.2c4.1-1.8,8.4-1.5,12.7-1.1c3,0.3,6,0.7,9.1,0.8c4.4,0.2,8.6-0.4,12.3-3.2c0.3-0.2,0.8-0.3,1.4-0.5
	c-1.1,4.2-2,8-3.1,11.9c-2.4,8.5-4.8,17.1-7.2,25.6c-0.6,2.2-0.9,2.4-3.1,2.7c-0.5,0.1-1,0.2-1.4,0.2c-5.5,0-10.6,1.4-15.5,3.8
	c-4.5,2.2-8.5,4.8-11.8,8.8c-3.8,4.6-5.5,9.9-5.7,15.7c-0.2,5.1,3.2,9.9,7.9,11.8c3.2,1.3,6.5,1.4,9.9,1.4c7.4,0,13.2-3.1,17.4-9.3
	c4.2-6.2,6.8-13,8.6-20.2c1.1-4.1,1.4-4.3,5.6-3.5c0.2,0,0.3,0.1,0.5,0.1c3.9,0.7,7.7,1.4,11.6,2.1c3.8,0.6,4.3,1.3,3.3,5.1
	c-1.4,5.1-2.9,10.1-4.5,15.2c-0.6,1.9-1.4,3.8-1.9,5.7c-0.5,1.7,0,2.5,1.6,3.2c2.1,0.9,4.2,1,6.4,0.4c1.6-0.4,2.8-1.4,3.4-3.1
	c0.7-2.3,1.6-4.5,2.2-6.8c1.5-5.5,3-11.1,4.4-16.7c0.4-1.5,1-2.4,2.7-2.6c1.7-0.2,3.3-0.7,4.9-1.1c6.5-1.7,12.1-4.9,16.9-9.6
	c0.8-0.8,1.3-2,1.7-3.1c0.4-0.9,0-1.9-0.8-2.6c-0.9-0.7-1.8-0.4-2.7,0.3c-1.3,1-2.7,2-4,3c-3.7,2.9-8,4.6-12.6,5.7
	C256.2,347,255.2,347,253.7,347.1z M149.7,374.5c0.1-0.1,0.2-0.2,0.4-0.3c-0.2-0.7-0.4-1.3-0.6-2c-3.9-11.7-7.9-23.3-11.8-34.9
	c-0.5-1.4-0.5-2.7,0-4.1c4-11.6,7.9-23.3,11.8-34.9c0.2-0.7,0.4-1.5,0.8-2.7c-25.2,13.3-49.9,26.4-75,39.6
	C100.3,348.4,125,361.5,149.7,374.5z M363.7,335.2c-25.1-13.3-49.8-26.3-75-39.6c0.4,1.4,0.6,2.2,0.9,3c3.9,11.5,7.8,23,11.7,34.5
	c0.5,1.5,0.5,2.9,0,4.4c-4,11.5-7.8,23-11.7,34.5c-0.3,0.8-0.5,1.6-0.9,3C313.9,361.5,338.6,348.4,363.7,335.2z"/>
<path fill-rule="evenodd" clip-rule="evenodd" fill="#FFFFFF" d="M253.7,347.1c1.5-0.1,2.5-0.1,3.5-0.3c4.6-1.1,8.8-2.7,12.6-5.7
	c1.3-1,2.7-2,4-3c0.8-0.6,1.7-0.9,2.7-0.3c0.9,0.6,1.2,1.6,0.8,2.6c-0.4,1.1-0.9,2.3-1.7,3.1c-4.8,4.7-10.4,7.9-16.9,9.6
	c-1.6,0.4-3.2,0.9-4.9,1.1c-1.6,0.2-2.3,1.1-2.7,2.6c-1.4,5.6-2.9,11.1-4.4,16.7c-0.6,2.3-1.5,4.6-2.2,6.8c-0.5,1.7-1.7,2.7-3.4,3.1
	c-2.1,0.5-4.3,0.4-6.4-0.4c-1.6-0.7-2.1-1.5-1.6-3.2c0.5-1.9,1.3-3.8,1.9-5.7c1.5-5,3-10.1,4.5-15.2c1.1-3.8,0.5-4.5-3.3-5.1
	c-3.9-0.6-7.7-1.4-11.6-2.1c-0.2,0-0.3-0.1-0.5-0.1c-4.2-0.8-4.5-0.6-5.6,3.5c-1.9,7.1-4.5,14-8.6,20.2c-4.2,6.1-10,9.3-17.4,9.3
	c-3.4,0-6.7-0.1-9.9-1.4c-4.7-1.9-8.1-6.7-7.9-11.8c0.2-5.8,1.9-11.1,5.7-15.7c3.2-4,7.3-6.6,11.8-8.8c4.9-2.4,10-3.8,15.5-3.8
	c0.5,0,1-0.1,1.4-0.2c2.2-0.3,2.4-0.5,3.1-2.7c2.4-8.5,4.8-17,7.2-25.6c1.1-3.8,2-7.7,3.1-11.9c-0.6,0.2-1.1,0.3-1.4,0.5
	c-3.7,2.8-7.9,3.3-12.3,3.2c-3-0.1-6.1-0.5-9.1-0.8c-4.3-0.4-8.6-0.7-12.7,1.1c-3,1.3-5.7,2.9-6.9,6.2c-1.4,4,0.2,7.6,4.1,9.2
	c2,0.8,4.1,0.9,6.1,0.1c1.3-0.5,2.6-1.2,3.9-1.9c1.9-1,3.2-0.8,4.4,0.8c1.1,1.5,1,3-0.5,4.5c-2,1.8-4,3.4-6.8,3.9
	c-4.7,0.7-9.4,1.1-13.9-0.9c-5.6-2.4-8.9-8-8.3-14.1c0.5-5.3,3-9.2,7.4-12.3c5.9-4.1,12.4-5.4,19.3-5.1c4.4,0.2,8.7,0.9,13.1,1.5
	c5.6,0.7,10.4-1,14.7-4.5c0.6-0.5,1.2-1.1,1.8-1.6c2.2-2.2,5.8-2.8,8.6-1.6c1.9,0.8,2.4,1.9,1.8,4.1c-1.5,5.2-3.1,10.4-4.5,15.7
	c-2.6,9.6-5.2,19.3-7.8,28.9c-0.1,0.5-0.2,1.1-0.2,1.7c-0.1,1.9,0.3,2.6,2.2,3.1c1.8,0.5,3.6,0.8,5.4,1.1c3,0.5,6,1,9,1.5
	c2.4,0.4,3.1,0,3.6-2.3c1-4.3,1.9-8.6,3-12.8c0.9-3.6,1.8-7.1,2.7-10.7c1-3.5,1.9-7.1,3-10.6c1.3-4,2.6-7.9,4.1-11.8
	c0.9-2.5,3.3-4.8,6.8-3.6c1,0.3,2.1,0.4,3,0.8c1.7,0.8,2,1.8,1.4,3.5c-0.8,2.1-1.5,4.2-2.3,6.3c-3,7.4-5.1,15.1-6.9,22.9
	c-1.2,5.2-2.6,10.4-3.9,15.6C254,345,253.9,345.8,253.7,347.1z M185.6,370.7c-0.1,2.5,1.6,5.2,6.6,5.6c2.7,0.2,5-0.8,6.9-2.7
	c2.6-2.5,4.5-5.6,5.7-9c1.3-3.8,2.6-7.5,3.7-11.4c0.6-1.9-0.2-2.7-2.3-2.5c-0.9,0.1-1.7,0.3-2.6,0.5c-5.9,0.9-10.6,4-14.2,8.6
	C187.3,362.6,185.7,365.7,185.6,370.7z"/>
<path fill-rule="evenodd" clip-rule="evenodd" fill="#FFFFFF" d="M149.7,374.5c-24.7-13.1-49.4-26.1-74.5-39.4
	c25.1-13.3,49.8-26.3,75-39.6c-0.4,1.2-0.5,1.9-0.8,2.7c-3.9,11.7-7.9,23.3-11.8,34.9c-0.5,1.4-0.5,2.7,0,4.1
	c4,11.6,7.9,23.3,11.8,34.9c0.2,0.7,0.4,1.3,0.6,2C149.9,374.3,149.8,374.4,149.7,374.5z M122.4,340.7c1.1,0,2.1,0,3.5,0
	c-1.9-4.3-3.7-8.3-5.4-12.3c-0.5,0-0.9-0.1-1.2-0.1c-1.8-0.3-2.7,0.4-3.4,2.1c-1,2.6-2.3,5.1-3.4,7.6c-0.3,0.8-0.6,1.6-0.9,2.5
	c1.3,0,2.3,0,3.3,0c0.4-0.7,0.8-1.3,1.1-1.8c1.9,0,3.6,0,5.4,0C121.7,339.5,122.1,340.1,122.4,340.7z M103.6,337.9
	c0-3.4,0-6.4,0-9.4c-1.2,0-2.1,0-3.2,0c0,4.1,0,8.1,0,12.2c3.2,0,6.2,0,9.4,0c-0.1-1-0.1-1.8-0.2-2.8
	C107.6,337.9,105.8,337.9,103.6,337.9z M127.9,342.8c1.3-0.4,2.1-1.7,2.1-3.2c-0.1-1-0.8-1.6-1.7-1.4c-1,0.2-1.3,0.8-1.1,1.8
	C127.4,340.9,127.6,341.7,127.9,342.8z"/>
<path fill-rule="evenodd" clip-rule="evenodd" fill="#FFFFFF" d="M363.7,335.2c-25.1,13.3-49.8,26.3-75,39.7c0.4-1.4,0.6-2.2,0.9-3
	c3.9-11.5,7.8-23,11.7-34.5c0.5-1.5,0.5-2.9,0-4.4c-3.9-11.5-7.8-23-11.7-34.5c-0.3-0.8-0.5-1.6-0.9-3
	C313.9,308.8,338.6,321.9,363.7,335.2z M335.1,340.7c-1.9-4.3-3.7-8.3-5.4-12.2c-0.5-0.1-0.8-0.2-1.1-0.2c-2.4-0.1-2.4-0.1-3.4,2.1
	c-1.3,2.8-2.6,5.7-3.8,8.5c-0.2,0.5-0.3,1.1-0.4,1.8c1.2,0,2.2,0,3.2,0c0.3-0.6,0.7-1.2,1.1-2c2.3,0.5,5.2-1.3,6.5,2
	C332.8,340.7,333.8,340.7,335.1,340.7z M319.5,330.3c-3.3-2.9-7.6-2.8-9.9,0c-2.3,2.6-2,7.2,0.5,9.4c2.7,2.3,7.3,2,9.4-0.6
	c-0.2-0.3-0.5-0.6-0.7-0.9c-0.3-0.3-0.7-0.6-1-0.9c-2.9,1.3-4.4,1.3-5.6,0c-1-1.1-1.1-3.6-0.1-4.7c1.6-1.9,3.5-1.4,5.5-0.4
	C318.2,331.5,318.8,330.9,319.5,330.3z M338.4,341.1c1,0,1.8-0.7,1.8-1.6c0-0.9-0.9-1.8-1.9-1.7c-0.9,0-1.7,0.8-1.8,1.6
	C336.5,340.4,337.3,341.2,338.4,341.1z"/>
<path fill-rule="evenodd" clip-rule="evenodd" d="M185.6,370.7c0.1-5,1.7-8.1,3.9-10.9c3.6-4.6,8.3-7.7,14.2-8.6
	c0.9-0.1,1.7-0.4,2.6-0.5c2-0.2,2.8,0.6,2.3,2.5c-1.1,3.8-2.4,7.6-3.7,11.4c-1.2,3.4-3.1,6.5-5.7,9c-1.9,1.9-4.3,2.9-6.9,2.7
	C187.2,375.9,185.6,373.2,185.6,370.7z"/>
<path fill-rule="evenodd" clip-rule="evenodd" d="M122.4,340.7c-0.3-0.6-0.7-1.2-1.1-1.9c-1.7,0-3.5,0-5.4,0
	c-0.3,0.5-0.7,1.1-1.1,1.8c-1,0-2,0-3.3,0c0.4-1,0.6-1.8,0.9-2.5c1.1-2.6,2.4-5,3.4-7.6c0.6-1.7,1.6-2.4,3.4-2.1
	c0.3,0,0.6,0.1,1.2,0.1c1.8,4,3.6,8,5.4,12.3C124.5,340.7,123.5,340.7,122.4,340.7z M120,335.6c-0.4-1.2-0.3-2.4-1.7-3.2
	c-0.4,1.1-0.8,2-1.3,3.2C118.2,335.6,119,335.6,120,335.6z"/>
<path fill-rule="evenodd" clip-rule="evenodd" d="M103.6,337.9c2.2,0,4,0,6,0c0.1,1,0.1,1.8,0.2,2.8c-3.2,0-6.2,0-9.4,0
	c0-4.1,0-8.1,0-12.2c1.1,0,2,0,3.2,0C103.6,331.5,103.6,334.5,103.6,337.9z"/>
<path fill-rule="evenodd" clip-rule="evenodd" d="M127.9,342.8c-0.3-1-0.5-1.9-0.7-2.8c-0.2-0.9,0.1-1.6,1.1-1.8
	c1-0.2,1.7,0.4,1.7,1.4C130,341.1,129.2,342.4,127.9,342.8z"/>
<path fill-rule="evenodd" clip-rule="evenodd" d="M335.1,340.7c-1.4,0-2.3,0-3.4,0c-1.3-3.4-4.2-1.6-6.5-2c-0.4,0.8-0.7,1.4-1.1,2
	c-1,0-2,0-3.2,0c0.2-0.7,0.2-1.3,0.4-1.8c1.2-2.8,2.5-5.7,3.8-8.5c1-2.2,1-2.2,3.4-2.1c0.3,0,0.6,0.1,1.1,0.2
	C331.5,332.4,333.2,336.4,335.1,340.7z M328.2,332.5c-0.2,0-0.5,0-0.7,0c-0.4,1-0.7,1.9-1.2,3.1c1.2,0,2,0,3,0
	C328.9,334.4,328.6,333.5,328.2,332.5z"/>
<path fill-rule="evenodd" clip-rule="evenodd" d="M319.5,330.3c-0.7,0.7-1.3,1.2-1.9,1.8c-2-1-3.9-1.5-5.5,0.4
	c-1,1.2-0.9,3.6,0.1,4.7c1.1,1.3,2.7,1.3,5.6,0c0.3,0.3,0.7,0.6,1,0.9c0.3,0.3,0.5,0.6,0.7,0.9c-2.1,2.6-6.7,2.9-9.4,0.6
	c-2.5-2.1-2.7-6.7-0.5-9.4C312,327.5,316.2,327.4,319.5,330.3z"/>
<path fill-rule="evenodd" clip-rule="evenodd" d="M338.4,341.1c-1.1,0-2-0.7-1.9-1.7c0-0.9,0.9-1.6,1.8-1.6c1,0,1.9,0.8,1.9,1.7
	C340.2,340.4,339.4,341.1,338.4,341.1z"/>
<path fill-rule="evenodd" clip-rule="evenodd" fill="#FFFFFF" d="M120,335.6c-1,0-1.8,0-2.9,0c0.5-1.2,0.8-2.1,1.3-3.2
	C119.7,333.2,119.5,334.4,120,335.6z"/>
<path fill-rule="evenodd" clip-rule="evenodd" fill="#FFFFFF" d="M328.2,332.5c0.3,0.9,0.7,1.9,1.1,3.1c-1,0-1.8,0-3,0
	c0.4-1.1,0.8-2.1,1.2-3.1C327.8,332.5,328,332.5,328.2,332.5z"/>
</svg>
