<svg xmlns="http://www.w3.org/2000/svg" viewBox="0 0 438.96 471.12">
  <defs>
    <style>.cls-1{fill:#fff;}</style>
  </defs>
  <path d="M438.72,235.68q0,58,0,116a2.2,2.2,0,0,1-1.39,2.27q-108.42,58.14-216.8,116.34a2,2,0,0,1-2.17,0Q110,412.12,1.59,354a2.2,2.2,0,0,1-1.39-2.27Q.26,235.56.21,119.4a2.2,2.2,0,0,1,1.39-2.27Q110,59,218.39.79a2,2,0,0,1,2.17,0Q328.95,59,437.36,117.14a2.2,2.2,0,0,1,1.39,2.27Q438.69,177.54,438.72,235.68Zm-11.76-1q0-55,0-109.91a2,2,0,0,0-1.24-2.12q-102.56-55-205.08-110.06a2.17,2.17,0,0,0-2.38,0Q115.78,67.68,13.23,122.67A2,2,0,0,0,12,124.78q0,109.91,0,219.82a2.13,2.13,0,0,0,1.3,2.2q102.55,55,205.06,110.06a2.1,2.1,0,0,0,2.27,0q102.57-55.09,205.17-110.12a2,2,0,0,0,1.21-2Q426.94,289.71,427,234.7Z"/>
  <path class="cls-1" d="M427,234.7q0,55,0,110a2,2,0,0,1-1.21,2q-102.6,55-205.17,110.12a2.1,2.1,0,0,1-2.27,0Q115.83,401.79,13.28,346.8a2.13,2.13,0,0,1-1.3-2.2q0-109.91,0-219.82a2,2,0,0,1,1.25-2.11q102.55-55,205.06-110.06a2.17,2.17,0,0,1,2.38,0Q323.19,67.68,425.74,122.67a2,2,0,0,1,1.24,2.12Q426.94,179.74,427,234.7Zm-5.76,0q0-53.34,0-106.67a1.69,1.69,0,0,0-1-1.8q-34.62-18.52-69.2-37.1L297.29,60.3Q258.84,39.66,220.41,19a1.8,1.8,0,0,0-2,.06Q194.76,31.82,171,44.54L86,90.18q-33.64,18.05-67.31,36.07a1.61,1.61,0,0,0-1,1.67q0,106.79,0,213.59a1.62,1.62,0,0,0,1,1.68q41.11,22,82.19,44.08l50.6,27.14q33.53,18,67.05,36a1.7,1.7,0,0,0,1.85,0c5.33-2.9,10.69-5.76,16-8.64l85-45.64q49.38-26.5,98.78-53a1.69,1.69,0,0,0,1-1.79Q421.19,288.06,421.2,234.73Z"/>
  <path d="M421.2,234.73q0,53.34,0,106.67a1.69,1.69,0,0,1-1,1.79q-49.4,26.46-98.78,53l-85,45.64c-5.35,2.87-10.71,5.73-16,8.64a1.7,1.7,0,0,1-1.85,0q-33.52-18-67.05-36l-50.6-27.14q-41.09-22-82.19-44.08a1.62,1.62,0,0,1-1-1.68q0-106.79,0-213.59a1.61,1.61,0,0,1,1-1.67q33.67-18,67.31-36.07l85-45.64q23.71-12.73,47.41-25.48a1.8,1.8,0,0,1,2-.06q38.42,20.68,76.88,41.31l53.77,28.85q34.6,18.56,69.2,37.1a1.69,1.69,0,0,1,1,1.8Q421.19,181.39,421.2,234.73ZM56.4,121.86c-.58.29-1,.47-1.34.68-7.54,4.11-15.07,8.25-22.63,12.32a1.9,1.9,0,0,0-1.13,2q0,91.49,0,183v1.43c.6-.3,1-.48,1.37-.69,7.5-4.1,15-8.22,22.52-12.27a2,2,0,0,0,1.19-2q0-38,0-76.07a1.89,1.89,0,0,1,1.15-1.93q13.64-7.39,27.25-14.86c.36-.2.74-.37,1.3-.64V291.3c.48-.22.81-.35,1.11-.51,7.68-4.19,15.35-8.4,23-12.56a1.61,1.61,0,0,0,.9-1.72q0-91.61,0-183.22c0-.38,0-.76-.06-1.27-.51.26-.9.44-1.28.64-7.43,4.06-14.85,8.14-22.31,12.15A2.32,2.32,0,0,0,86,107.2q.06,38,.05,76a1.89,1.89,0,0,1-1.15,1.94Q71.21,192.51,57.55,200c-.34.18-.69.34-1.15.57Zm325.93,78.72c-.5-.25-.85-.41-1.19-.6-9-4.94-18.09-9.89-27.15-14.79a2.15,2.15,0,0,1-1.33-2.2q.05-38,0-76.07a1.9,1.9,0,0,0-1.14-2c-7.59-4.09-15.16-8.25-22.73-12.38-.34-.18-.69-.34-1.2-.59v1.34q0,52.13,0,104.27a1.88,1.88,0,0,0,1.14,1.94q26.28,14.34,52.54,28.72a1.8,1.8,0,0,1,1.09,1.85q-.06,24,0,48c0,.35,0,.69,0,1.24L328.8,250.18v1.47c0,8.48,0,17,0,25.44a1.76,1.76,0,0,0,1.07,1.84q14.72,8,29.39,16l27,14.82L406,320.49l1.38.73c0-.57.06-1,.06-1.35q0-91.61,0-183.22a1.73,1.73,0,0,0-1.06-1.75q-11.38-6.16-22.73-12.39c-.37-.2-.76-.38-1.3-.65ZM27.15,336.11l1.22.68Q123.65,388,218.92,439.15a1.9,1.9,0,0,0,2.06,0Q316.25,388,411.54,336.79l1.2-.67-1.5-.83q-95-51-190-102.07a2.27,2.27,0,0,0-2.48,0Q130.53,280.61,42.32,328ZM223.5,38.25c0,.46-.05.8-.05,1.14q0,75.7,0,151.4a1.42,1.42,0,0,0,1,1.52c8.17,3.83,16.32,7.71,24.47,11.57.28.13.56.24,1,.41v-1.18q0-75.16,0-150.32a1.57,1.57,0,0,0-1-1.64Q236.7,45,224.55,38.73C224.24,38.57,223.92,38.44,223.5,38.25ZM306,232.66V185.28q0-51.83,0-103.66a1.64,1.64,0,0,0-1-1.73c-8-4-15.93-8.14-23.9-12.21-.43-.22-.9-.36-1.48-.58v35q0,58.31,0,116.62a2,2,0,0,0,1.37,2.12c7,3.27,14,6.61,21,9.92ZM133.32,265.56c.57-.29,1-.47,1.33-.68q34.18-18.67,68.36-37.32a1.8,1.8,0,0,0,1.13-1.83c0-8.48,0-17,0-25.43v-1.4l-46,25.1V173.26l-1.3.67c-7.45,3.94-14.88,7.91-22.35,11.81a2,2,0,0,0-1.2,2q0,38.15,0,76.3Zm0-107.33,1.4-.74c7.42-4,14.82-8,22.26-12a2,2,0,0,0,1.26-2.1c0-16,0-31.91,0-47.87a2,2,0,0,1,1.18-2Q181.22,81.62,203,69.69a1.8,1.8,0,0,0,1.11-1.85c0-8.44,0-16.88,0-25.31,0-.41,0-.82-.08-1.42l-1.53.81q-34,18.55-68,37.07a2.07,2.07,0,0,0-1.25,2.13q0,37.79,0,75.59Zm25,14.75c.42-.19.64-.27.84-.38q15.93-8.69,31.87-17.37a1.36,1.36,0,0,0,.77-1.42q0-13.07,0-26.14c0-.3,0-.59-.05-1-.39.19-.63.29-.87.42Q175,135.74,159.1,144.39a1.43,1.43,0,0,0-.82,1.51q0,12.89,0,25.78C158.29,172,158.29,172.4,158.29,173Zm121,76.64a3.89,3.89,0,0,0,.09-.5c0-9.44,0-18.88,0-28.32a1.73,1.73,0,0,0-.86-1.19q-13.79-7.37-27.62-14.66c-.29-.15-.6-.27-1-.45,0,9.72,0,19.28,0,28.84a1.77,1.77,0,0,0,.91,1.16c4.43,2.39,8.88,4.74,13.33,7.09Z"/>
  <path class="cls-1" d="M56.4,121.86v78.72c.46-.23.81-.39,1.15-.57q13.67-7.46,27.36-14.91a1.89,1.89,0,0,0,1.15-1.94q0-38-.05-76a2.32,2.32,0,0,1,1.43-2.39c7.46-4,14.88-8.09,22.31-12.15.38-.21.76-.39,1.28-.64,0,.52.06.89.06,1.27q0,91.61,0,183.22a1.61,1.61,0,0,1-.9,1.72c-7.7,4.15-15.37,8.37-23,12.56-.3.17-.63.29-1.11.51V212.74c-.56.28-.94.45-1.3.64q-13.62,7.43-27.25,14.86a1.89,1.89,0,0,0-1.15,1.93q0,38,0,76.07a2,2,0,0,1-1.19,2c-7.53,4.06-15,8.17-22.52,12.27-.38.21-.77.39-1.37.69v-1.43q0-91.49,0-183a1.9,1.9,0,0,1,1.13-2c7.56-4.08,15.09-8.21,22.63-12.32C55.43,122.33,55.82,122.15,56.4,121.86Z"/>
  <path class="cls-1" d="M382.33,200.58V121.87c.54.27.93.44,1.3.65q11.36,6.2,22.73,12.39a1.73,1.73,0,0,1,1.06,1.75q0,91.61,0,183.22c0,.39,0,.77-.06,1.35l-1.38-.73-19.67-10.74-27-14.82q-14.68-8-29.39-16a1.76,1.76,0,0,1-1.07-1.84c0-8.48,0-17,0-25.44v-1.47l53.52,29.17c0-.55,0-.9,0-1.24q0-24,0-48a1.8,1.8,0,0,0-1.09-1.85Q355,213.91,328.75,199.54a1.88,1.88,0,0,1-1.14-1.94q0-52.13,0-104.27V92c.51.25.86.41,1.2.59,7.57,4.13,15.14,8.28,22.73,12.38a1.9,1.9,0,0,1,1.14,2q0,38,0,76.07a2.15,2.15,0,0,0,1.33,2.2c9.07,4.9,18.1,9.85,27.15,14.79C381.48,200.17,381.83,200.33,382.33,200.58Z"/>
  <path class="cls-1" d="M27.15,336.11,42.32,328q88.21-47.37,176.41-94.76a2.27,2.27,0,0,1,2.48,0q95,51.06,190,102.07l1.5.83-1.2.67Q316.26,388,221,439.16a1.9,1.9,0,0,1-2.06,0q-95.27-51.2-190.55-102.37Zm23.29.24c.53.3.9.52,1.29.73q83.72,45.23,167.43,90.48a2.08,2.08,0,0,0,2.27,0q83.7-45.26,167.43-90.48c.41-.22.81-.46,1.31-.75l-1.26-.71q-83.77-45.26-167.53-90.54a2,2,0,0,0-2.17,0q-75.91,41-151.83,82Z"/>
  <path class="cls-1" d="M223.5,38.25c.42.19.74.32,1.06.48Q236.71,45,248.87,51.16a1.57,1.57,0,0,1,1,1.64q0,75.16,0,150.32v1.18c-.42-.18-.71-.28-1-.41-8.15-3.86-16.3-7.74-24.47-11.57a1.42,1.42,0,0,1-1-1.52q0-75.7,0-151.4C223.44,39,223.47,38.7,223.5,38.25Z"/>
  <path class="cls-1" d="M306,232.66l-4-1.91c-7-3.31-14-6.65-21-9.92a2,2,0,0,1-1.37-2.12q.05-58.31,0-116.62v-35c.58.22,1,.36,1.48.58C289,71.76,297,75.85,305,79.9a1.64,1.64,0,0,1,1,1.73q0,51.83,0,103.66v47.38Z"/>
  <path class="cls-1" d="M133.32,265.56v-1.49q0-38.15,0-76.3a2,2,0,0,1,1.2-2c7.47-3.9,14.9-7.87,22.35-11.81l1.3-.67V224l46-25.1v1.4c0,8.48,0,17,0,25.43a1.8,1.8,0,0,1-1.13,1.83q-34.19,18.64-68.36,37.32C134.28,265.08,133.89,265.26,133.32,265.56Z"/>
  <path class="cls-1" d="M133.32,158.23v-1.52q0-37.79,0-75.59A2.07,2.07,0,0,1,134.55,79q34-18.5,68-37.07L204,41.1c0,.6.08,1,.08,1.42,0,8.44,0,16.88,0,25.31A1.8,1.8,0,0,1,203,69.69q-21.84,11.88-43.66,23.8a2,2,0,0,0-1.18,2c0,16,0,31.91,0,47.87a2,2,0,0,1-1.26,2.1c-7.44,4-14.84,8-22.26,12Z"/>
  <path class="cls-1" d="M158.29,173c0-.58,0-.93,0-1.29q0-12.89,0-25.78a1.43,1.43,0,0,1,.82-1.51q15.89-8.63,31.74-17.33c.24-.13.48-.24.87-.42,0,.42,0,.72.05,1q0,13.07,0,26.14a1.36,1.36,0,0,1-.77,1.42q-15.95,8.66-31.87,17.37C158.93,172.71,158.71,172.79,158.29,173Z"/>
  <path class="cls-1" d="M279.27,249.62l-15.15-8c-4.45-2.36-8.9-4.7-13.33-7.09a1.77,1.77,0,0,1-.91-1.16c-.05-9.56,0-19.11,0-28.84.4.18.71.29,1,.45q13.82,7.32,27.62,14.66a1.73,1.73,0,0,1,.86,1.19c0,9.44,0,18.88,0,28.32A3.89,3.89,0,0,1,279.27,249.62Z"/>
  <path d="M50.44,336.35l16.94-9.17q75.92-41,151.83-82a2,2,0,0,1,2.17,0q83.75,45.3,167.53,90.54l1.26.71c-.51.29-.9.53-1.31.75q-83.72,45.23-167.43,90.48a2.08,2.08,0,0,1-2.27,0q-83.7-45.26-167.43-90.48C51.34,336.87,51,336.65,50.44,336.35Zm172.36-33.78c-1.07,4.13-2,8-3.09,11.91-1.29,4.65-2.74,9.25-4,13.9-1.2,4.26-2.32,8.53-3.43,12.81a2.21,2.21,0,0,1-2.17,1.85c-2.39.18-4.81.19-7.16.59A40.17,40.17,0,0,0,185.68,351a23.85,23.85,0,0,0-8.88,11.6,38.41,38.41,0,0,0-1.73,8c-.58,5.18,3,10.59,7.8,12.57,3.39,1.38,6.92,1.5,10.48,1.47A19.82,19.82,0,0,0,209.16,377c3.31-4.07,5.38-8.88,7.26-13.71,1.24-3.18,2-6.56,2.94-9.86.52-1.81,1-2.22,2.79-1.95,2.37.35,4.71.86,7.06,1.28,3.18.56,6.37,1.09,9.56,1.65a1.71,1.71,0,0,1,1.49,2,6.88,6.88,0,0,1-.21,1.77c-2,6.72-4.07,13.43-6.1,20.15a21.51,21.51,0,0,0-.62,2.43,1.63,1.63,0,0,0,1.1,2,18.28,18.28,0,0,0,5,1.1c2.28,0,4.47-.68,5.38-3.2.61-1.69,1.22-3.38,1.69-5.11,1.71-6.27,3.37-12.56,5-18.85.42-1.6.81-1.9,2.35-2.27,3.09-.75,6.2-1.49,9.22-2.5a24.39,24.39,0,0,0,5.7-2.78c2.51-1.67,4.85-3.62,7.2-5.54a5.86,5.86,0,0,0,1.32-2,3,3,0,0,0-.4-3.65c-.8-.63-1.9-.42-3.24.66-4.7,3.82-9.72,7-15.76,8.25a20.62,20.62,0,0,1-2.48.36c-1,.08-1.38-.42-1.15-1.41.65-2.8,1.21-5.62,1.93-8.4q2.67-10.24,5.46-20.45c.72-2.61,1.49-5.22,2.4-7.77,1.21-3.38,2.57-6.7,3.87-10a1.78,1.78,0,0,0-.73-2.4,27.26,27.26,0,0,0-3.76-1.39c-3.33-1.12-5.73.52-7,3.56-1.33,3.28-2.52,6.63-3.65,10-1,2.87-1.77,5.79-2.6,8.7-.32,1.11-.47,2.26-.76,3.37-.65,2.43-1.42,4.82-2,7.27-1.23,5.24-2.37,10.51-3.55,15.76-.71,3.16-1.14,3.47-4.3,3q-6.44-1.05-12.87-2.18c-2.94-.52-3.83-1.69-3.19-4.29q1.83-7.38,3.81-14.72c1.84-6.78,3.73-13.54,5.63-20.3,1-3.73,2.16-7.43,3.26-11.14a2.4,2.4,0,0,0-.75-2.47c-1.63-1.81-7.73-1.82-9.64.45a18.75,18.75,0,0,1-9.84,6.08,23.64,23.64,0,0,1-10,0c-4.69-.78-9.37-1.54-14.17-1.08-5.24.5-10.14,1.71-14.62,4.72a16.67,16.67,0,0,0-7.86,12.72,14.22,14.22,0,0,0,10.42,14.75,28.57,28.57,0,0,0,9.05.51,13.39,13.39,0,0,0,8.57-3.52,10.59,10.59,0,0,0,1.9-2.1c.76-1.25.4-2.42-.9-3.72a2.88,2.88,0,0,0-3.31-.55c-.46.23-.9.53-1.35.77-2.23,1.21-4.51,2.28-7.16,1.85-3-.49-5.35-2-6.47-4.88a7.09,7.09,0,0,1,1.47-7.19,14.32,14.32,0,0,1,10.72-5.13,79.21,79.21,0,0,1,10.75.53,48.93,48.93,0,0,0,10.28.27,12.55,12.55,0,0,0,5.79-1.74C220.23,303.94,221.41,303.35,222.79,302.56Zm-72.16,72.51c-.21-.74-.33-1.18-.47-1.62q-6.26-18.48-12.51-37a3.62,3.62,0,0,1,0-2.16q6.21-18.5,12.51-37c.15-.44.26-.88.48-1.63l-75,39.67Zm138.48-.34.24.17,74.73-39.51-75-39.67c.22.76.33,1.17.46,1.58q6.26,18.48,12.5,37a3.81,3.81,0,0,1,0,2.26q-5.61,16.75-11.31,33.46C290.15,371.58,289.64,373.16,289.11,374.74Z"/>
  <path class="cls-1" d="M222.79,302.56c-1.38.79-2.56,1.38-3.65,2.11a12.55,12.55,0,0,1-5.79,1.74,48.93,48.93,0,0,1-10.28-.27,79.21,79.21,0,0,0-10.75-.53,14.32,14.32,0,0,0-10.72,5.13,7.09,7.09,0,0,0-1.47,7.19c1.12,2.9,3.47,4.39,6.47,4.88,2.65.44,4.93-.64,7.16-1.85.46-.25.89-.54,1.35-.77a2.88,2.88,0,0,1,3.31.55c1.3,1.3,1.67,2.47.9,3.72a10.59,10.59,0,0,1-1.9,2.1,13.39,13.39,0,0,1-8.57,3.52,28.57,28.57,0,0,1-9.05-.51,14.22,14.22,0,0,1-10.42-14.75,16.67,16.67,0,0,1,7.86-12.72c4.48-3,9.38-4.22,14.62-4.72,4.8-.46,9.48.3,14.17,1.08a23.64,23.64,0,0,0,10,0,18.75,18.75,0,0,0,9.84-6.08c1.91-2.27,8-2.26,9.64-.45a2.4,2.4,0,0,1,.75,2.47c-1.1,3.71-2.21,7.42-3.26,11.14-1.9,6.76-3.8,13.52-5.63,20.3q-2,7.34-3.81,14.72c-.64,2.6.25,3.77,3.19,4.29Q233.15,346,239.6,347c3.16.51,3.59.2,4.3-3,1.18-5.25,2.32-10.52,3.55-15.76.57-2.44,1.35-4.84,2-7.27.3-1.11.45-2.27.76-3.37.83-2.91,1.64-5.83,2.6-8.7,1.13-3.36,2.32-6.71,3.65-10,1.23-3,3.63-4.68,7-3.56a27.26,27.26,0,0,1,3.76,1.39,1.78,1.78,0,0,1,.73,2.4c-1.29,3.35-2.66,6.67-3.87,10-.91,2.55-1.69,5.16-2.4,7.77q-2.79,10.21-5.46,20.45c-.72,2.78-1.28,5.6-1.93,8.4-.23,1,.15,1.49,1.15,1.41a20.62,20.62,0,0,0,2.48-.36c6-1.24,11.06-4.44,15.76-8.25,1.33-1.08,2.44-1.29,3.24-.66a3,3,0,0,1,.4,3.65,5.86,5.86,0,0,1-1.32,2c-2.34,1.92-4.68,3.86-7.2,5.54a24.39,24.39,0,0,1-5.7,2.78c-3,1-6.12,1.75-9.22,2.5-1.54.37-1.93.67-2.35,2.27-1.66,6.29-3.32,12.57-5,18.85-.47,1.73-1.09,3.42-1.69,5.11-.9,2.52-3.1,3.2-5.38,3.2a18.28,18.28,0,0,1-5-1.1,1.63,1.63,0,0,1-1.1-2,21.51,21.51,0,0,1,.62-2.43c2-6.72,4.08-13.43,6.1-20.15a6.88,6.88,0,0,0,.21-1.77,1.71,1.71,0,0,0-1.49-2c-3.19-.55-6.38-1.08-9.56-1.65-2.36-.42-4.7-.93-7.06-1.28-1.84-.27-2.27.14-2.79,1.95-.94,3.3-1.7,6.67-2.94,9.86-1.88,4.83-4,9.64-7.26,13.71a19.82,19.82,0,0,1-15.82,7.68c-3.56,0-7.09-.09-10.48-1.47-4.83-2-8.38-7.39-7.8-12.57a38.41,38.41,0,0,1,1.73-8,23.85,23.85,0,0,1,8.88-11.6,40.17,40.17,0,0,1,17.21-7.41c2.35-.39,4.77-.41,7.16-.59a2.21,2.21,0,0,0,2.17-1.85c1.12-4.28,2.23-8.56,3.43-12.81,1.31-4.64,2.75-9.25,4-13.9C220.78,310.6,221.73,306.7,222.79,302.56ZM185.93,370a20.38,20.38,0,0,0,.84,3.28c1.15,2.82,5.8,3.64,8,3.14,3.77-.85,6.06-3.48,8-6.47,2.8-4.42,4.25-9.43,5.78-14.38a18.71,18.71,0,0,0,.54-2.94,1.34,1.34,0,0,0-1.48-1.7,21,21,0,0,0-3.06.44,22.64,22.64,0,0,0-16.16,11A16.19,16.19,0,0,0,185.93,370Z"/>
  <path class="cls-1" d="M150.63,375.07l-75-39.67,75-39.67c-.22.75-.33,1.19-.48,1.63q-6.26,18.48-12.51,37a3.62,3.62,0,0,0,0,2.16q6.21,18.5,12.51,37C150.31,373.89,150.42,374.33,150.63,375.07Z"/>
  <path class="cls-1" d="M289.11,374.74c.52-1.58,1-3.16,1.57-4.73q5.67-16.73,11.31-33.46a3.81,3.81,0,0,0,0-2.26q-6.21-18.5-12.5-37c-.14-.41-.24-.82-.46-1.58l75,39.67-74.73,39.51Z"/>
  <path d="M185.93,370a16.19,16.19,0,0,1,2.43-7.62,22.64,22.64,0,0,1,16.16-11,21,21,0,0,1,3.06-.44,1.34,1.34,0,0,1,1.48,1.7,18.71,18.71,0,0,1-.54,2.94c-1.53,5-3,10-5.78,14.38-1.89,3-4.18,5.62-8,6.47-2.22.5-6.87-.32-8-3.14A20.38,20.38,0,0,1,185.93,370Z"/>
</svg>