<svg xmlns="http://www.w3.org/2000/svg" viewBox="0 0 690.93 600">
  <path d="M178.47,229.46l-5.95,5.1-6.8,4.25-5.95,4.25-6.8,2.55-7.65,2.55-7.65,1.7-6.8.85-7.65.85-16.15.85H92.63l-8.5-.85-10.2-1.7-11-2.55-7.65-3.4-6.8-2.55-6.79-4.25-11.9-8.5-5.95-5.95-4.25-5.1-4.25-6.79-4.25-6L7.65,198l-3.4-7.65-1.7-7.65-1.7-6.8L0,168.27v-7.65l2.55-22.95L4.25,130l10.2-20.4L22.94,96l5.1-5.1,11.9-10.19,5.1-3.4,6.79-4.25L59.49,68l6-4.25,6.8-3.39,7.65-3.4,10.19-3.4,11-2.55,7.65-2.55L124.08,45l7.65-.85h6.8l15.3-1.7H170l7.65.85h7.65l10.2.85L238,51l7.65.85,8.5.85,7.65,1.7h7.65l22.1-2.55,7.65-1.7,8.49-2.55,5.1-1.7,8.5-4.25,9.35-5.1,9.35-5.95,7.65-5.95,3.4-3.4,6.8-5.95,5.1-6,6.8-5.09L379,1.7,387.53,0h6.8l8.5.85,8.5,1.7L418.13,6l6.8,5.95,2.55,7.65-2.55,11-4.25,13.6-3.4,11-5.95,17.85-2.55,10.19-2.55,8.5-2.55,11L401.13,113l-2.55,7.65-1.7,6.8-2.55,7.65-2.55,11L385,170l-5.1,22.95-2.55,6.79-2.55,7.65-1.7,6.79-2.55,7.65-3.4,11-2.55,13.59L362,256.66l-2.55,8.5-2.55,10.19-2.55,11L351.84,294l-1.7,6.8-2.55,8.5L345,319.55l-.85,12.75,5.09,8.49,11,4.25,12.75,2.55,18.7,3.4,24.64,3.4,17.85,3.4,15.3,2.55,9.35,1.7,6.8-.85,5.09-5.1,2.55-6,1.7-5.95,3.4-15.29,2.55-8.5,1.7-10.2,3.4-17,2.55-10.2,1.7-7.65,2.55-7.65.85-7.65,5.1-22.95,2.55-7.65,1.7-6.8,3.4-15.29,2.55-7.65,2.55-6.79,1.7-7.65.85-7.65,2.55-7.65,1.7-7.65,1.7-6.8,3.39-7.65,5.1-15.3,1.7-6.79,1.7-7.65,2.55-7.65,2.55-6.8L541.36,96l2.55-6.79,2.55-7.65L549,73.09l1.7-4.25,2.55-9.35,2.55-6.8L560.06,45l4.25-5.95,8.5-6.8,9.35-3.4h8.49l7.65,1.7,8.49,1.7,7.65,1.7,6.79,3.4,6,5.1,2.55,6.79-1.7,6.8-3.4,7.65-4.25,10.2-8.5,25.5-3.4,6.8-2.55,7.65-3.4,6.8L600,128.33l-1.7,6.8-2.55,7.65-1.7,7.65L589,165.73l-2.55,10.19-3.4,10.2-2.55,8.5-2.55,6.79-5.09,22.95L570.25,232l-1.7,8.5-.85,5.1-2.55,8.49-1.7,7.65-2.55,7.65-1.7,7.65-1.7,6.8-1.7,7.65-2.55,7.65-1.7,8.5-1.7,7.65-1.7,5.95-1.7,8.5-2.55,11L541.36,351l-.85,6.8,2.55,3.4,6.8.85,11-1.7,13.6-3.4,12.75-4.25,16.14-5.95,10.2-4.25,7.65-4.25,6.8-5.1,8.5-5.1,26.34-19.55,8.5-6.79L679,300l6,1.7,4.25,5.1,1.7,6.79-.85,7.65-4.25,9.35-6.8,8.49-11.89,10.2-7.65,5.95-3.39,3.4-7.65,5.1-5.95,5.1-7.65,4.25-20.4,10.2L600,390.08l-7.65,3.4L585.55,396l-9.35,2.55-5.1.85-8.5,1.7L555,403.68l-8.5,1.7-7.65,1.7-6.8.85-5.1,4.25-2.55,5.95L521,433.43l-2.55,7.65-1.7,6.79-1.7,7.65-2.55,7.65-1.7,6.8-2.55,8.49-2.55,10.2L504,498.87l-2.55,7.65-1.7,7.65-2.55,7.65L494.61,532l-3.39,11-2.55,7.65-2.55,6.8-2.55,7.65-3.39,11-6.8,10.2-11.9,5.95L447,594.9l-13.59-.85-12.75-3.4-9.35-5.1-3.4-5.95.85-10.2,3.4-10.19,3.4-7.65,3.4-11,7.65-22.94,2.55-8.5,3.4-9.35,1.7-10.2,2.55-8.49,3.39-10.2,5.1-17.85,1.7-6.8,2.55-7.65,2.55-11,.85-11.89-5.1-7.65-10.2-2.55-5.1-.85-22.1-3.39-30.6-5.1-18.7-4.25-12.75-2.55-5.1-.85-11-.85-8.5,1.7-3.4,5.95-2.55,9.35-.85,5.1-2.55,8.5-1.7,7.65-2.55,6.8-2.55,7.65-2.55,8.5-1.7,5.1-2.55,8.49L298.3,470l-10.19,20.4L284.7,498l-4.25,10.2-5.09,10.19-4.25,6.8-9.35,14.45-3.4,5.1-4.25,5.95-5.1,5.95-5.1,5.1-17.85,15.3-6.79,4.25-6,4.25-7.65,3.4-10.19,3.4-10.2,2.55-8.5,2.55-7.65,1.7-9.35.85h-13.6L130,599.15l-7.65-.85h-6.8l-7.65-.85-7.65-2.55-5.95-1.7-6.8-2.55-8.5-3.4L72.24,583l-6-4.25-5.95-5.1-4.25-6L51,561.76l-3.4-6.8-4.25-6.79-2.55-6.8-2.55-7.65-1.7-7.65V510.77l1.7-15.29.85-6.8,1.7-7.65,2.55-7.65,1.7-6.79,2.55-7.65,2.55-6.79,3.4-7.65,3.4-6.79,4.25-6.8,5.1-6.8,10.2-11.89,4.25-6,5.1-5.95,5.95-5.95,20.4-14.45,4.25-2.55,7.65-5.95,6.8-3.4,6.8-4.25,7.65-2.55,6.8-3.4,22.1-9.35,6.8-2.55,7.65-2.55,22.94-5.1,23.8-2.55h7.65l14.45-.85,6.79-.85,6.8-4.25,2.55-6.8,2.55-10.19,2.55-11,1.7-7.65L283,286.4l3.4-6.8,1.7-7.65,2.55-7.65,2.55-11,2.55-13.6,3.4-11,3.4-7.65,2.55-11,2.55-10.2,2.55-7.65,1.7-7.65,2.55-7.65,1.7-6.8,2.55-7.65,1.7-6.8,2.55-7.65,2.55-11,2.55-10.2,3.39-15.29,4.25-14.45,2.55-7.65,1.7-6.8,1.7-5.1-1.7-.85L335.69,79l-6.8,3.4-5.95,4.25-6.8,3.4-6.8,4.25-7.65,2.55L294,98.59l-10.2,1.7-11,.85-15.29.85H249l-11-.85-31.44-3.4-10.2-.85-6.8-1.7h-45l-7.65.85-22.1,6.8-7.65,2.55-6,4.25L95.18,113l-5.95,4.25-6.8,5.95-5.95,6L73.09,136l-3.4,7.65L68,150.43l-1.7,7.65v8.5l1.7,6.8,3.4,7.65L75.63,187l6,6,5.95,4.25,6.8,4.25L102,204l7.65,1.7,7.65.85,8.5-.85,7.65-1.7,6.8-2.55,7.65-3.39,6.8-3.4,6.8-4.25,6.79-3.4h7.65l7.65,3.4,5.95,6.8,4.25,7.65-.85,7.65-3.4,6.8-5.1,5.95Zm-12.75,317,7.65-2.55,13.6-6.79,5.95-6,10.2-11,4.25-5.95,5.1-5.95,6.8-13.6,4.25-6.8,3.4-6.79,2.55-7.65,2.55-6.79,3.4-6.8,2.55-7.65,2.55-6.8,4.25-15.3,2.55-6.79,2.55-7.65,3.39-15.3.85-9.35L249,385l-9.35-.85-15.3,3.4-7.65.85-6.8,1.7-7.65,2.55-6.79,2.55-7.65,2.55-13.59,6.79-6,4.25-6.79,5.1-6,5.09-5.95,4.25-11.89,10.19-4.25,6-5.1,5.95L124.08,453l-4.25,6.8-2.55,5.1L113,472.52l-3.4,10.2-3.4,13.59v13.6l2.55,14.45,6.79,11,11.05,7.65,12.75,4.25,11.89,1.7,8.5-.85Z"/>
</svg>