<?xml version="1.0" encoding="utf-8"?>
<!-- Generator: Adobe Illustrator 18.0.0, SVG Export Plug-In . SVG Version: 6.00 Build 0)  -->
<!DOCTYPE svg PUBLIC "-//W3C//DTD SVG 1.1//EN" "http://www.w3.org/Graphics/SVG/1.1/DTD/svg11.dtd">
<svg version="1.1" id="Layer_1" xmlns="http://www.w3.org/2000/svg" xmlns:xlink="http://www.w3.org/1999/xlink" x="0px" y="0px"
	 viewBox="0 0 1792 1792" enable-background="new 0 0 1792 1792" xml:space="preserve">
<g>
	<path fill="#010101" d="M712.4,1156.8l-2.6,7.9c-7.1,19.7-11.4,37.2-13,52.6c109.8-21.6,228.6-56.3,347.5-110.9l-13.8-37.9
		C915.7,1118.4,803.4,1143.9,712.4,1156.8z"/>
	<path fill="#010101" d="M896,0L120.1,448v896L896,1792l775.9-448V448L896,0z M1274,1272.3c-3.9,1-8.5,2.7-13.7,2.7
		c-3.9,0-11.1,0-21.6,0c-9.8,0-21.9,0-36.3,0c-13.7,0-28.9-1.4-45.6-1.7c-16.7-0.3-33.5-2-50.5-2.7c-9.2-0.7-16.4-1.1-21.6-1.5
		c-5.2-0.3-7.9-2.1-7.9-5.4c0-3.3,2.3-5.6,6.9-6.9c3.3-1.3,5.9-4.1,7.9-8.3c2-4.3,1.3-10.3-2-18.2l-24.9-68.2
		c-460.1,190-891.1,77.1-891.1,77.1s189.6,29.5,444.2-8.4c1.1-1.3,2.2-2.5,3.2-3.9c11.4-16.7,21.7-37.4,30.9-62.3l0.3-0.8
		c-87.7,8.3-144.2,4.6-144.2,4.6s57.7-1.4,148.7-17l217.9-596.2c5.9-16.3,10.1-26.8,12.8-31.4c2.6-4.6,5.5-6.9,8.8-6.9
		c3.3,0,6.2,2.1,8.8,6.4c2.6,4.3,6.9,13.9,12.8,28.9c2.6,5.9,8.7,21.3,18.2,46.1c9.5,24.9,20.9,55.1,34.3,90.8
		c13.4,35.7,28.3,74.7,44.6,117.3c16.3,42.5,32.5,84.6,48.6,126.1c16,41.6,31.4,81,46.1,118.2c14.7,37.3,27,68.4,36.8,93.2
		c8.5,21.6,16.8,39.2,25,53c8.2,13.7,15.7,24.5,22.6,32.4c6.9,7.8,13.4,13.4,19.6,16.7c6.2,3.3,11.9,5.6,17.2,6.9
		c7.2,2.6,14.2,4.3,21.1,4.9c6.9,0.7,12.9,1,18.2,1c6.5,0,9.8,2.6,9.8,6.5C1279.9,1268.6,1278,1271.4,1274,1272.3z"/>
	<path fill="#010101" d="M887.4,676c-5.2-14.4-10.1-14.4-14.7,0l-154.5,463.6c86-18.4,191.4-48.5,302.7-97.5L887.4,676z"/>
</g>
</svg>
