<?xml version="1.0" encoding="utf-8"?>
<!-- Generator: Adobe Illustrator 18.0.0, SVG Export Plug-In . SVG Version: 6.00 Build 0)  -->
<!DOCTYPE svg PUBLIC "-//W3C//DTD SVG 1.1//EN" "http://www.w3.org/Graphics/SVG/1.1/DTD/svg11.dtd">
<svg version="1.1" id="Layer_1" xmlns="http://www.w3.org/2000/svg" xmlns:xlink="http://www.w3.org/1999/xlink" x="0px" y="0px"
	 viewBox="0 0 1792 1792" enable-background="new 0 0 1792 1792" xml:space="preserve">
<g>
	<path fill="#010101" d="M896,0L120.1,448v896L896,1792l775.9-448V448L896,0z M1344,1229.1c0,31.5-11.3,58.6-33.8,81.1
		s-49.6,33.8-81.1,33.8H562.9c-31.5,0-58.6-11.3-81.1-33.8c-22.5-22.5-33.8-49.6-33.8-81.1V562.9c0-31.5,11.3-58.6,33.8-81.1
		c22.5-22.5,49.6-33.8,81.1-33.8h666.2c31.5,0,58.6,11.3,81.1,33.8s33.8,49.6,33.8,81.1V1229.1z"/>
	<path fill="#010101" d="M769.8,1017.6c35.2,34.1,77.5,51.1,126.9,51.1c49.8,0,92.3-17,127.4-51.1c35.2-34.1,52.7-75.1,52.7-123.4
		c0-48.2-17.6-89.4-52.7-123.4c-35.2-34.1-77.7-51.1-127.4-51.1c-49.4,0-91.7,17-126.9,51.1c-35.2,34.1-52.7,75.1-52.7,123.4
		C716.9,942.4,734.5,983.6,769.8,1017.6z"/>
	<path fill="#010101" d="M1175.4,903.6c0,49-12.5,94.3-37.3,135.6c-24.9,41.3-58.7,74.2-101.5,98.2c-42.8,24.2-89.5,36.2-140,36.2
		c-76.7,0-142.1-26.4-196.6-79.1c-54.5-52.7-81.7-116.4-81.7-191.1c0-26.5,3.8-51.9,11.7-76.4h-82.2v378c0,10.1,3.4,18.6,10.3,25.4
		c6.9,6.9,15.3,10.3,25.4,10.3H1207c9.7,0,18.1-3.4,25.1-10.3c7-6.9,10.5-15.3,10.5-25.4V827.2h-78.8
		C1171.6,851.7,1175.4,877.1,1175.4,903.6z"/>
	<path fill="#010101" d="M1202.2,547.8h-101.5c-11.3,0-20.8,4-28.6,11.9c-7.8,7.9-11.7,17.4-11.7,28.2v96.2
		c0,11.3,3.9,20.8,11.7,28.6c7.8,7.8,17.3,11.7,28.6,11.7h101.5c11.3,0,20.8-3.9,28.6-11.7c7.8-7.8,11.7-17.3,11.7-28.6V588
		c0-10.8-3.9-20.3-11.7-28.2C1223,551.8,1213.6,547.8,1202.2,547.8z"/>
</g>
</svg>
